<svg data-v-423bf9ae="" xmlns="http://www.w3.org/2000/svg" viewBox="0 0 294.6593192526296 60" class="font"><!----><!----><!----><g data-v-423bf9ae="" id="42ca3548-22a7-42f5-be5b-bf8a1c096810" fill="white" transform="matrix(6.593406317012648,0,0,6.593406317012648,-1.0549440487959316,-27.956042228697)"><path d="M6.82 6.73L6.82 6.73Q6.82 7.42 6.31 8.08Q5.79 8.74 4.86 9.07L4.86 9.07L4.86 9.08L6.10 10.79Q6.36 11.15 6.47 11.30Q6.58 11.45 6.78 11.70Q6.97 11.94 7.09 12.04Q7.20 12.15 7.37 12.29Q7.55 12.43 7.71 12.51Q7.88 12.58 8.09 12.65L8.09 12.65L8.32 12.71L8.22 13.19Q7.83 13.32 7.40 13.32L7.40 13.32Q6.64 13.32 6.05 12.82Q5.46 12.33 4.96 11.44L4.96 11.44L3.88 9.50L2.69 9.50L2.69 12.31L3.98 12.61L3.91 13.17L0.16 13.17L0.23 12.67L1.38 12.35L1.38 5.65L0.21 5.44L0.27 4.92Q2.28 4.61 3.40 4.61L3.40 4.61Q4.18 4.61 4.79 4.72Q5.40 4.83 5.87 5.07Q6.33 5.31 6.58 5.73Q6.82 6.14 6.82 6.73ZM2.69 8.88L4.04 8.88Q4.61 8.69 5.01 8.24Q5.41 7.79 5.41 7.11L5.41 7.11Q5.41 6.25 4.90 5.71Q4.40 5.17 3.51 5.17L3.51 5.17Q3.29 5.17 3.09 5.19Q2.88 5.20 2.79 5.20L2.79 5.20L2.69 5.21L2.69 8.88ZM11.89 11.89L11.89 10.25Q10.83 10.45 10.39 10.82Q9.94 11.18 9.94 11.70L9.94 11.70Q9.94 12.00 10.15 12.25Q10.36 12.50 10.71 12.50L10.71 12.50Q11.03 12.50 11.36 12.30Q11.70 12.11 11.89 11.89L11.89 11.89ZM13.09 13.30L13.09 13.30Q12.55 13.30 12.29 13.02Q12.03 12.74 12.03 12.38L12.03 12.38L12.03 12.28L11.95 12.28Q11.87 12.43 11.73 12.60Q11.60 12.76 11.38 12.94Q11.16 13.12 10.82 13.23Q10.48 13.34 10.08 13.34L10.08 13.34Q9.52 13.34 9.13 12.98Q8.74 12.63 8.74 12.02L8.74 12.02Q8.74 11.63 8.92 11.28Q9.11 10.92 9.47 10.62Q9.84 10.32 10.47 10.12Q11.09 9.91 11.89 9.86L11.89 9.86L11.89 9.48Q11.89 9.11 11.84 8.80Q11.79 8.50 11.65 8.23Q11.52 7.96 11.28 7.82Q11.03 7.68 10.68 7.68L10.68 7.68Q10.47 7.68 10.34 7.76Q10.20 7.84 10.13 8.03Q10.06 8.21 10.02 8.40Q9.99 8.60 9.95 8.91L9.95 8.91Q9.94 9.06 9.93 9.13L9.93 9.13Q9.78 9.13 9.68 9.12Q9.58 9.11 9.44 9.07Q9.30 9.04 9.20 8.97Q9.11 8.89 9.04 8.75Q8.98 8.61 8.98 8.42L8.98 8.42Q8.98 8.07 9.37 7.73Q9.75 7.39 10.30 7.20L10.30 7.20Q10.83 7.01 11.31 7.01L11.31 7.01Q12.22 7.01 12.61 7.52Q13.01 8.03 13.01 9.12L13.01 9.12L13.01 11.61Q13.01 12.09 13.15 12.26Q13.30 12.44 13.77 12.52L13.77 12.52L14.10 12.58L14.03 13.16Q13.92 13.17 13.75 13.21Q13.58 13.25 13.42 13.28Q13.27 13.30 13.09 13.30ZM18.85 12.33L18.85 12.28L18.79 12.28Q18.03 13.32 16.89 13.32L16.89 13.32Q15.94 13.32 15.30 12.55Q14.66 11.79 14.66 10.44L14.66 10.44Q14.66 9.72 14.93 9.07Q15.20 8.42 15.63 7.98Q16.06 7.53 16.59 7.27Q17.12 7.01 17.65 7.01L17.65 7.01Q17.99 7.01 18.32 7.11Q18.66 7.20 18.83 7.33L18.83 7.33L18.88 7.33L18.79 6.44L18.79 5.58L17.75 5.20L17.85 4.70L19.74 4.53L19.90 4.70L19.90 11.70Q19.90 11.96 19.94 12.11Q19.99 12.27 20.09 12.36Q20.20 12.44 20.30 12.48Q20.40 12.52 20.59 12.56L20.59 12.56Q20.63 12.56 20.64 12.56L20.64 12.56L20.95 12.63L20.88 13.21Q20.38 13.33 19.87 13.33L19.87 13.33Q19.37 13.33 19.11 13.05Q18.85 12.78 18.85 12.33L18.85 12.33ZM18.79 11.83L18.79 11.83L18.79 8.63Q18.53 8.20 18.11 7.94Q17.69 7.68 17.33 7.68L17.33 7.68Q16.93 7.68 16.65 7.86Q16.36 8.04 16.19 8.36Q16.03 8.69 15.95 9.10Q15.87 9.50 15.87 10.01L15.87 10.01Q15.87 11.19 16.29 11.82Q16.71 12.45 17.38 12.45L17.38 12.45Q17.79 12.45 18.19 12.26Q18.59 12.07 18.79 11.83ZM27.22 9.07L27.22 9.07L27.22 12.39L28.21 12.63L28.14 13.17L25.07 13.17L25.14 12.67L26.07 12.39L26.09 9.26L26.09 9.21Q26.09 8.86 25.98 8.60Q25.87 8.35 25.70 8.21Q25.52 8.07 25.32 8.01Q25.13 7.94 24.91 7.94L24.91 7.94Q24.19 7.94 23.59 8.56L23.59 8.56L23.59 12.38L24.59 12.62L24.51 13.17L21.33 13.17L21.40 12.63L22.46 12.38L22.46 5.53L21.36 5.17L21.44 4.65L23.42 4.49L23.59 4.66L23.59 7.36L23.47 8.08L23.56 8.08Q24.51 7.01 25.56 7.01L25.56 7.01Q25.94 7.01 26.23 7.11Q26.51 7.20 26.75 7.42Q26.98 7.64 27.10 8.06Q27.22 8.47 27.22 9.07ZM28.72 13.17L28.81 12.63L29.85 12.38L29.85 8.18L28.81 7.80L28.90 7.28L30.82 7.12L30.99 7.29L30.99 12.38L32.08 12.62L32.01 13.17L28.72 13.17ZM30.35 4.24L30.35 4.24Q30.69 4.24 30.94 4.47Q31.19 4.70 31.19 5.02L31.19 5.02Q31.19 5.36 30.94 5.61Q30.69 5.86 30.35 5.86Q30.02 5.86 29.78 5.61Q29.54 5.36 29.54 5.01L29.54 5.01Q29.54 4.68 29.78 4.46Q30.02 4.24 30.35 4.24ZM34.95 10.21L34.95 10.08L36.72 7.87L35.81 7.58L35.89 7.07L38.79 7.07L38.70 7.57L37.67 7.85L36.06 9.84L36.60 10.53Q36.77 10.74 36.99 11.03Q37.21 11.33 37.33 11.48Q37.45 11.64 37.63 11.85Q37.80 12.05 37.91 12.15Q38.03 12.26 38.18 12.37Q38.34 12.48 38.49 12.53Q38.65 12.58 38.83 12.61L38.83 12.61L39.09 12.65L39.02 13.17Q38.62 13.31 38.21 13.31L38.21 13.31Q37.87 13.31 37.59 13.20Q37.32 13.10 37.01 12.81Q36.70 12.52 36.42 12.19Q36.15 11.85 35.67 11.21L35.67 11.21L34.95 10.21ZM32.53 13.17L32.60 12.63L33.65 12.38L33.65 5.60L32.57 5.24L32.65 4.72L34.62 4.56L34.79 4.73L34.79 5.12L34.79 12.38L35.88 12.62L35.80 13.17L32.53 13.17ZM42.64 11.89L42.64 10.25Q41.58 10.45 41.14 10.82Q40.69 11.18 40.69 11.70L40.69 11.70Q40.69 12.00 40.90 12.25Q41.10 12.50 41.46 12.50L41.46 12.50Q41.78 12.50 42.11 12.30Q42.44 12.11 42.64 11.89L42.64 11.89ZM43.84 13.30L43.84 13.30Q43.30 13.30 43.04 13.02Q42.78 12.74 42.78 12.38L42.78 12.38L42.78 12.28L42.70 12.28Q42.62 12.43 42.48 12.60Q42.35 12.76 42.13 12.94Q41.90 13.12 41.57 13.23Q41.23 13.34 40.83 13.34L40.83 13.34Q40.26 13.34 39.88 12.98Q39.49 12.63 39.49 12.02L39.49 12.02Q39.49 11.63 39.67 11.28Q39.85 10.92 40.22 10.62Q40.59 10.32 41.21 10.12Q41.84 9.91 42.64 9.86L42.64 9.86L42.64 9.48Q42.64 9.11 42.59 8.80Q42.53 8.50 42.40 8.23Q42.27 7.96 42.02 7.82Q41.78 7.68 41.43 7.68L41.43 7.68Q41.22 7.68 41.08 7.76Q40.95 7.84 40.88 8.03Q40.80 8.21 40.77 8.40Q40.74 8.60 40.70 8.91L40.70 8.91Q40.69 9.06 40.67 9.13L40.67 9.13Q40.53 9.13 40.43 9.12Q40.33 9.11 40.19 9.07Q40.04 9.04 39.95 8.97Q39.86 8.89 39.79 8.75Q39.72 8.61 39.72 8.42L39.72 8.42Q39.72 8.07 40.11 7.73Q40.50 7.39 41.05 7.20L41.05 7.20Q41.58 7.01 42.06 7.01L42.06 7.01Q42.96 7.01 43.36 7.52Q43.76 8.03 43.76 9.12L43.76 9.12L43.76 11.61Q43.76 12.09 43.90 12.26Q44.04 12.44 44.52 12.52L44.52 12.52L44.85 12.58L44.78 13.16Q44.67 13.17 44.50 13.21Q44.32 13.25 44.17 13.28Q44.02 13.30 43.84 13.30Z"></path></g><!----><!----></svg>